<svg width="40" height="40" viewBox="0 0 40 40" fill="none" xmlns="http://www.w3.org/2000/svg">
<path d="M13.6621 26.501C13.8086 26.6475 13.9785 26.7441 14.1719 26.791C14.3711 26.8379 14.5674 26.8379 14.7607 26.791C14.9541 26.7441 15.1211 26.6504 15.2617 26.5098L20.5 21.2715L25.7383 26.5098C25.8789 26.6504 26.0459 26.7441 26.2393 26.791C26.4326 26.8379 26.626 26.8379 26.8193 26.791C27.0127 26.7441 27.1826 26.6475 27.3291 26.501C27.4756 26.3545 27.5723 26.1846 27.6191 25.9912C27.666 25.7979 27.666 25.6045 27.6191 25.4111C27.5723 25.2178 27.4785 25.0508 27.3379 24.9102L22.1084 19.6631L27.3379 14.4248C27.4785 14.2842 27.5723 14.1172 27.6191 13.9238C27.6719 13.7305 27.6719 13.5371 27.6191 13.3438C27.5723 13.1504 27.4756 12.9834 27.3291 12.8428C27.1826 12.6904 27.0127 12.5908 26.8193 12.5439C26.626 12.4971 26.4326 12.4971 26.2393 12.5439C26.0459 12.5908 25.8789 12.6846 25.7383 12.8252L20.5 18.0635L15.2617 12.8252C15.1211 12.6846 14.9512 12.5908 14.752 12.5439C14.5586 12.4971 14.3623 12.4971 14.1631 12.5439C13.9697 12.5908 13.8027 12.6875 13.6621 12.834C13.5156 12.9805 13.4189 13.1504 13.3721 13.3438C13.3311 13.5371 13.3311 13.7334 13.3721 13.9326C13.4189 14.126 13.5127 14.29 13.6533 14.4248L18.8916 19.6631L13.6533 24.9102C13.5127 25.0508 13.4189 25.2178 13.3721 25.4111C13.3252 25.6045 13.3252 25.7979 13.3721 25.9912C13.4189 26.1846 13.5156 26.3545 13.6621 26.501Z" fill="white"/>
</svg>
