<svg width="36" height="44" viewBox="0 0 36 44" fill="none" xmlns="http://www.w3.org/2000/svg">
<path d="M36 18C36 32 18 44 18 44C18 44 0 32 0 18C7.11366e-08 13.2261 1.89642 8.64773 5.27208 5.27208C8.64773 1.89642 13.2261 0 18 0C22.7739 0 27.3523 1.89642 30.7279 5.27208C34.1036 8.64773 36 13.2261 36 18Z" fill="#6155E8"/>
<path d="M18.2001 25.2001C22.0661 25.2001 25.2001 22.0661 25.2001 18.2001C25.2001 14.3341 22.0661 11.2001 18.2001 11.2001C14.3341 11.2001 11.2001 14.3341 11.2001 18.2001C11.2001 22.0661 14.3341 25.2001 18.2001 25.2001Z" stroke="white" stroke-width="1.5" stroke-linecap="round" stroke-linejoin="round"/>
</svg>
