<svg width="81" height="81" viewBox="0 0 81 81" fill="none" xmlns="http://www.w3.org/2000/svg">
<g clip-path="url(#clip0_1763_7245)">
<path d="M68.6884 68.6894C84.402 52.9757 84.402 27.4989 68.6884 11.7852C52.9747 -3.92847 27.4978 -3.92847 11.7841 11.7852C-3.92953 27.4989 -3.92953 52.9757 11.7841 68.6894C27.4978 84.4031 52.9747 84.4031 68.6884 68.6894Z" fill="#FFD05D"/>
<path d="M29 36C29 38.2091 27.2091 40 25 40C22.7909 40 21 38.2091 21 36C21 33.7909 22.7909 32 25 32C27.2091 32 29 33.7909 29 36Z" fill="#404040"/>
<path d="M59.0001 36C59.0001 38.2091 57.2093 40 55.0001 40C52.791 40 51.0001 38.2091 51.0001 36C51.0001 33.7909 52.791 32 55.0001 32C57.2093 32 59.0001 33.7909 59.0001 36Z" fill="#404040"/>
<line x1="26.5" y1="51.5" x2="53.5" y2="51.5" stroke="#695342" stroke-width="3" stroke-linecap="round"/>
</g>
<defs>
<clipPath id="clip0_1763_7245">
<rect width="80.47" height="80.47" fill="white"/>
</clipPath>
</defs>
</svg>
