<svg width="81" height="81" viewBox="0 0 81 81" fill="none" xmlns="http://www.w3.org/2000/svg">
<g clip-path="url(#clip0_1763_7237)">
<path d="M68.6884 68.6894C84.402 52.9757 84.402 27.4989 68.6884 11.7852C52.9747 -3.92847 27.4978 -3.92847 11.7841 11.7852C-3.92953 27.4989 -3.92953 52.9757 11.7841 68.6894C27.4978 84.4031 52.9747 84.4031 68.6884 68.6894Z" fill="#FFD05D"/>
<path d="M16.5566 44.0421C14.7663 44.0421 13.3616 45.6079 13.7807 47.3484C16.6565 59.294 27.4045 68.1732 40.2374 68.1732C53.0706 68.1732 63.8189 59.2935 66.6907 47.3475C67.1091 45.6072 65.7045 44.0421 63.9146 44.0421H16.5566Z" fill="#695342"/>
<path d="M21.5583 60.7384C26.4299 65.3409 33.0008 68.1684 40.2326 68.1684C47.4643 68.1684 53.4688 65.5816 58.2695 61.3237L58.0193 60.7384C39.8644 51.8828 21.8038 60.6157 21.5583 60.7384Z" fill="#F06669"/>
<path d="M17.8258 62.1218C17.8258 62.1218 17.8188 62.0964 17.8144 62.0805C17.1248 59.5808 14.7232 57.779 12.0608 58.5135C9.94573 59.097 9.14562 60.9891 9.12928 62.5556C8.31292 61.2222 6.65584 60.008 4.54079 60.5915C1.87832 61.326 0.740296 64.1043 1.42991 66.604C1.43341 66.6167 1.43692 66.6294 1.4413 66.6453C1.57559 67.1927 3.11845 72.7246 12.5523 74.9756L12.5585 74.9739C19.507 68.2034 17.9921 62.6638 17.8267 62.1249L17.8258 62.1218Z" fill="#F06669"/>
<path d="M77.7634 8.15974C77.7634 8.15974 77.7619 8.12518 77.761 8.10358C77.6105 4.70349 75.0992 1.69354 71.5284 1.85151C68.6918 1.977 67.1375 4.16253 66.6659 6.16165C66.0198 4.21631 64.2786 2.17657 61.442 2.30206C57.8712 2.46003 55.6354 5.67999 55.7859 9.08008C55.7866 9.09737 55.7874 9.11465 55.7884 9.13625C55.8002 9.87595 56.1542 17.4053 67.4091 23.0543L67.4174 23.0539C78.1336 16.433 77.8172 8.90191 77.7636 8.16406L77.7634 8.15974Z" fill="#F06669"/>
</g>
<path d="M22.8416 39.6053C22.3915 39.6053 21.9498 39.4053 21.6539 39.026C21.1414 38.3718 21.2622 37.4259 21.9165 36.9133L27.0379 32.9212L21.7414 29.8083C21.0247 29.3874 20.7872 28.4623 21.2081 27.7456C21.6289 27.0288 22.554 26.7913 23.2708 27.2122L30.4758 31.4502C30.905 31.7044 31.1842 32.1503 31.2134 32.6503C31.2467 33.1462 31.03 33.6296 30.6383 33.938L23.7667 39.2927C23.4916 39.5053 23.1666 39.6094 22.8416 39.6094V39.6053Z" fill="#404040"/>
<path d="M57.1583 39.6053C56.8333 39.6053 56.5083 39.5011 56.2332 39.2886L49.3616 33.9338C48.9699 33.6254 48.7532 33.1462 48.7866 32.6462C48.8199 32.1503 49.0949 31.7002 49.5241 31.446L56.7291 27.2081C57.4459 26.7872 58.3668 27.0247 58.7919 27.7414C59.2127 28.4582 58.9752 29.3791 58.2585 29.8042L52.962 32.917L58.0835 36.9092C58.7377 37.4217 58.8585 38.3677 58.346 39.0219C58.0501 39.4011 57.6042 39.6011 57.1583 39.6011V39.6053Z" fill="#404040"/>
<defs>
<clipPath id="clip0_1763_7237">
<rect width="80.47" height="80.47" fill="white"/>
</clipPath>
</defs>
</svg>
