<svg width="81" height="81" viewBox="0 0 81 81" fill="none" xmlns="http://www.w3.org/2000/svg">
<g clip-path="url(#clip0_1763_7236)">
<path d="M68.6884 68.6894C84.402 52.9757 84.402 27.4989 68.6884 11.7852C52.9747 -3.92847 27.4978 -3.92847 11.7841 11.7852C-3.92953 27.4989 -3.92953 52.9757 11.7841 68.6894C27.4978 84.4031 52.9747 84.4031 68.6884 68.6894Z" fill="#FFD05D"/>
<path d="M16.5566 44.0421C14.7663 44.0421 13.3616 45.6079 13.7807 47.3484C16.6565 59.294 27.4045 68.1732 40.2374 68.1732C53.0706 68.1732 63.8189 59.2935 66.6907 47.3475C67.1091 45.6072 65.7045 44.0421 63.9146 44.0421H16.5566Z" fill="#695342"/>
<path d="M21.5583 60.7384C26.4299 65.3409 33.0008 68.1684 40.2326 68.1684C47.4643 68.1684 53.4688 65.5816 58.2695 61.3237L58.0193 60.7384C39.8644 51.8828 21.8038 60.6157 21.5583 60.7384Z" fill="#F06669"/>
<path d="M32 32C32 34.2091 30.2091 36 28 36C25.7909 36 24 34.2091 24 32C24 29.7909 25.7909 28 28 28C30.2091 28 32 29.7909 32 32Z" fill="#404040"/>
<path d="M56.0001 32C56.0001 34.2091 54.2093 36 52.0001 36C49.791 36 48.0001 34.2091 48.0001 32C48.0001 29.7909 49.791 28 52.0001 28C54.2093 28 56.0001 29.7909 56.0001 32Z" fill="#404040"/>
</g>
<defs>
<clipPath id="clip0_1763_7236">
<rect width="80.47" height="80.47" fill="white"/>
</clipPath>
</defs>
</svg>
