<svg width="325" height="325" viewBox="0 0 325 325" fill="none" xmlns="http://www.w3.org/2000/svg">
<circle cx="166" cy="163" r="44.5" stroke="black"/>
<path d="M149.229 163.193C149.229 163.412 149.305 163.597 149.455 163.747C149.619 163.897 149.804 163.973 150.009 163.973H164.651V178.595C164.651 178.813 164.727 178.998 164.877 179.148C165.027 179.312 165.212 179.395 165.431 179.395C165.649 179.395 165.834 179.312 165.984 179.148C166.148 178.998 166.23 178.813 166.23 178.595V163.973H180.832C181.064 163.973 181.256 163.897 181.406 163.747C181.557 163.597 181.632 163.412 181.632 163.193C181.632 162.975 181.557 162.79 181.406 162.64C181.256 162.476 181.064 162.394 180.832 162.394H166.23V147.771C166.23 147.553 166.148 147.368 165.984 147.218C165.834 147.067 165.649 146.992 165.431 146.992C165.212 146.992 165.027 147.067 164.877 147.218C164.727 147.368 164.651 147.553 164.651 147.771V162.394H150.009C149.804 162.394 149.619 162.476 149.455 162.64C149.305 162.79 149.229 162.975 149.229 163.193Z" fill="#404040"/>
</svg>
