<svg width="32" height="39" viewBox="0 0 32 39" fill="none" xmlns="http://www.w3.org/2000/svg">
<path d="M31 16.1364C31 27.9091 16 38 16 38C16 38 1 27.9091 1 16.1364C1 12.1219 2.58035 8.27196 5.3934 5.43334C8.20644 2.59472 12.0218 1 16 1C19.9782 1 23.7936 2.59472 26.6066 5.43334C29.4196 8.27196 31 12.1219 31 16.1364Z" fill="#FF6161" stroke="#FF6161" stroke-width="1.5" stroke-linecap="round" stroke-linejoin="round"/>
<path d="M16.1666 22.1909C19.3882 22.1909 21.9999 19.5555 21.9999 16.3046C21.9999 13.0536 19.3882 10.4182 16.1666 10.4182C12.9449 10.4182 10.3333 13.0536 10.3333 16.3046C10.3333 19.5555 12.9449 22.1909 16.1666 22.1909Z" stroke="white" stroke-width="1.5" stroke-linecap="round" stroke-linejoin="round"/>
</svg>
