<svg width="81" height="81" viewBox="0 0 81 81" fill="none" xmlns="http://www.w3.org/2000/svg">
<g clip-path="url(#clip0_1757_7463)">
<path d="M68.6884 68.6894C84.402 52.9757 84.402 27.4989 68.6884 11.7852C52.9747 -3.92847 27.4978 -3.92847 11.7841 11.7852C-3.92953 27.4989 -3.92953 52.9757 11.7841 68.6894C27.4978 84.4031 52.9747 84.4031 68.6884 68.6894Z" fill="#FFD05D"/>
<path d="M48.5799 54.8053C50.8895 55.605 52.7627 53.7351 50.8241 52.2467C48.2401 50.2627 44.351 49 39.9988 49C35.6453 49 31.7552 50.2635 29.1717 52.2485C27.2341 53.7371 29.1077 55.6062 31.4165 54.8066C34.1062 53.875 37.3405 53 40 53C42.6583 53 45.891 53.8743 48.5799 54.8053Z" fill="#695342"/>
<path d="M32 33C32 35.2091 30.2091 37 28 37C25.7909 37 24 35.2091 24 33C24 30.7909 25.7909 29 28 29C30.2091 29 32 30.7909 32 33Z" fill="#303030"/>
<path d="M56.0001 33C56.0001 35.2091 54.2093 37 52.0001 37C49.791 37 48.0001 35.2091 48.0001 33C48.0001 30.7909 49.791 29 52.0001 29C54.2093 29 56.0001 30.7909 56.0001 33Z" fill="#303030"/>
<path d="M52.5 51C53.7429 51 54.8036 50.5421 55.6821 49.6263C56.5607 48.7105 57 47.6048 57 46.3093C57 45.2818 56.8286 44.366 56.4857 43.5619C56.1429 42.7577 55.1786 41.1495 53.5929 38.7371C53.4214 38.5137 53.25 38.3351 53.0786 38.201C52.9071 38.067 52.7143 38 52.5 38C52.2857 38 52.0929 38.067 51.9214 38.201C51.75 38.3351 51.5786 38.5137 51.4071 38.7371C49.8214 41.1495 48.8571 42.7577 48.5143 43.5619C48.1714 44.366 48 45.2818 48 46.3093C48 47.6048 48.4393 48.7105 49.3179 49.6263C50.1964 50.5421 51.2571 51 52.5 51Z" fill="#FEFEFE"/>
</g>
<defs>
<clipPath id="clip0_1757_7463">
<rect width="80.47" height="80.47" fill="white"/>
</clipPath>
</defs>
</svg>
